<mxfile host="app.diagrams.net" modified="2023-04-21T08:51:01.322Z" agent="Mozilla/5.0 (Windows NT 10.0; Win64; x64) AppleWebKit/537.36 (KHTML, like Gecko) Chrome/112.0.0.0 Safari/537.36" etag="n90MYX8oWUNYIuUj-0lb" version="21.2.1" type="device">
  <diagram name="Page-1" id="cRb-Yq5XZZT_LmYoKP7A">
    <mxGraphModel dx="1596" dy="804" grid="1" gridSize="10" guides="1" tooltips="1" connect="1" arrows="1" fold="1" page="1" pageScale="1" pageWidth="850" pageHeight="1100" math="0" shadow="0">
      <root>
        <mxCell id="0" />
        <mxCell id="1" parent="0" />
        <mxCell id="qAO6iCF2Uroy4pQ40kKF-22" style="edgeStyle=orthogonalEdgeStyle;rounded=0;orthogonalLoop=1;jettySize=auto;html=1;strokeWidth=2;" parent="1" source="qAO6iCF2Uroy4pQ40kKF-21" target="qAO6iCF2Uroy4pQ40kKF-23" edge="1">
          <mxGeometry relative="1" as="geometry">
            <mxPoint x="680" y="315" as="targetPoint" />
          </mxGeometry>
        </mxCell>
        <mxCell id="qAO6iCF2Uroy4pQ40kKF-21" value="No, the branch name is available" style="rounded=0;whiteSpace=wrap;html=1;fillColor=#d5e8d4;strokeColor=#82b366;strokeWidth=2;" parent="1" vertex="1">
          <mxGeometry x="265" y="285" width="230" height="60" as="geometry" />
        </mxCell>
        <mxCell id="qAO6iCF2Uroy4pQ40kKF-42" style="edgeStyle=orthogonalEdgeStyle;rounded=0;orthogonalLoop=1;jettySize=auto;html=1;strokeWidth=2;entryX=0;entryY=0.5;entryDx=0;entryDy=0;" parent="1" source="qAO6iCF2Uroy4pQ40kKF-23" target="qAO6iCF2Uroy4pQ40kKF-44" edge="1">
          <mxGeometry relative="1" as="geometry">
            <mxPoint x="930" y="315" as="targetPoint" />
          </mxGeometry>
        </mxCell>
        <mxCell id="qAO6iCF2Uroy4pQ40kKF-23" value="Create Branch" style="rounded=0;whiteSpace=wrap;html=1;fillColor=#dae8fc;strokeColor=#6c8ebf;strokeWidth=2;" parent="1" vertex="1">
          <mxGeometry x="580" y="285" width="120" height="60" as="geometry" />
        </mxCell>
        <mxCell id="qAO6iCF2Uroy4pQ40kKF-26" style="edgeStyle=orthogonalEdgeStyle;rounded=0;orthogonalLoop=1;jettySize=auto;html=1;strokeWidth=2;entryX=0;entryY=0.5;entryDx=0;entryDy=0;" parent="1" source="qAO6iCF2Uroy4pQ40kKF-25" target="qAO6iCF2Uroy4pQ40kKF-48" edge="1">
          <mxGeometry relative="1" as="geometry">
            <mxPoint x="250" y="650" as="targetPoint" />
          </mxGeometry>
        </mxCell>
        <mxCell id="qAO6iCF2Uroy4pQ40kKF-25" value="Task v1" style="shape=note;whiteSpace=wrap;html=1;backgroundOutline=1;darkOpacity=0.05;strokeWidth=2;" parent="1" vertex="1">
          <mxGeometry x="70" y="600" width="80" height="100" as="geometry" />
        </mxCell>
        <mxCell id="qAO6iCF2Uroy4pQ40kKF-28" style="edgeStyle=orthogonalEdgeStyle;rounded=0;orthogonalLoop=1;jettySize=auto;html=1;strokeWidth=2;exitX=1;exitY=0.5;exitDx=0;exitDy=0;" parent="1" source="qAO6iCF2Uroy4pQ40kKF-48" target="qAO6iCF2Uroy4pQ40kKF-29" edge="1">
          <mxGeometry relative="1" as="geometry">
            <mxPoint x="450" y="710" as="targetPoint" />
            <mxPoint x="510" y="650" as="sourcePoint" />
          </mxGeometry>
        </mxCell>
        <mxCell id="qAO6iCF2Uroy4pQ40kKF-47" style="edgeStyle=orthogonalEdgeStyle;rounded=0;orthogonalLoop=1;jettySize=auto;html=1;entryX=0;entryY=0.5;entryDx=0;entryDy=0;strokeWidth=2;" parent="1" source="qAO6iCF2Uroy4pQ40kKF-29" target="qAO6iCF2Uroy4pQ40kKF-46" edge="1">
          <mxGeometry relative="1" as="geometry" />
        </mxCell>
        <mxCell id="qAO6iCF2Uroy4pQ40kKF-29" value="Yes, the branch name already exists" style="rounded=0;whiteSpace=wrap;html=1;fillColor=#f8cecc;strokeColor=#b85450;strokeWidth=2;" parent="1" vertex="1">
          <mxGeometry x="650" y="620" width="190" height="60" as="geometry" />
        </mxCell>
        <mxCell id="qAO6iCF2Uroy4pQ40kKF-53" style="edgeStyle=orthogonalEdgeStyle;rounded=0;orthogonalLoop=1;jettySize=auto;html=1;strokeWidth=2;" parent="1" source="qAO6iCF2Uroy4pQ40kKF-31" target="qAO6iCF2Uroy4pQ40kKF-37" edge="1">
          <mxGeometry relative="1" as="geometry" />
        </mxCell>
        <mxCell id="qAO6iCF2Uroy4pQ40kKF-31" value="Increase task version" style="rounded=0;whiteSpace=wrap;html=1;fillColor=#e1d5e7;strokeColor=#9673a6;strokeWidth=2;" parent="1" vertex="1">
          <mxGeometry x="940" y="830" width="160" height="60" as="geometry" />
        </mxCell>
        <mxCell id="qAO6iCF2Uroy4pQ40kKF-38" style="edgeStyle=orthogonalEdgeStyle;rounded=0;orthogonalLoop=1;jettySize=auto;html=1;strokeWidth=2;dashed=1;" parent="1" source="qAO6iCF2Uroy4pQ40kKF-37" target="qAO6iCF2Uroy4pQ40kKF-39" edge="1">
          <mxGeometry relative="1" as="geometry">
            <mxPoint x="640" y="850" as="targetPoint" />
          </mxGeometry>
        </mxCell>
        <mxCell id="qAO6iCF2Uroy4pQ40kKF-37" value="Task v++" style="shape=note;whiteSpace=wrap;html=1;backgroundOutline=1;darkOpacity=0.05;fillColor=#bac8d3;strokeColor=#23445d;strokeWidth=2;" parent="1" vertex="1">
          <mxGeometry x="710" y="810" width="80" height="100" as="geometry" />
        </mxCell>
        <mxCell id="qAO6iCF2Uroy4pQ40kKF-67" style="edgeStyle=orthogonalEdgeStyle;rounded=0;orthogonalLoop=1;jettySize=auto;html=1;entryX=0.5;entryY=1;entryDx=0;entryDy=0;dashed=1;strokeWidth=2;" parent="1" source="qAO6iCF2Uroy4pQ40kKF-39" target="qAO6iCF2Uroy4pQ40kKF-48" edge="1">
          <mxGeometry relative="1" as="geometry" />
        </mxCell>
        <mxCell id="qAO6iCF2Uroy4pQ40kKF-39" value="Repeat the same process" style="rounded=0;whiteSpace=wrap;html=1;fillColor=#b0e3e6;strokeColor=#0e8088;strokeWidth=2;" parent="1" vertex="1">
          <mxGeometry x="240" y="830" width="280" height="60" as="geometry" />
        </mxCell>
        <mxCell id="qAO6iCF2Uroy4pQ40kKF-44" value="Go ahead with the PR process" style="whiteSpace=wrap;html=1;aspect=fixed;fillColor=#d5e8d4;strokeColor=#82b366;strokeWidth=2;" parent="1" vertex="1">
          <mxGeometry x="970" y="240" width="150" height="150" as="geometry" />
        </mxCell>
        <mxCell id="qAO6iCF2Uroy4pQ40kKF-55" style="edgeStyle=orthogonalEdgeStyle;rounded=0;orthogonalLoop=1;jettySize=auto;html=1;entryX=0.5;entryY=0;entryDx=0;entryDy=0;strokeWidth=2;" parent="1" source="qAO6iCF2Uroy4pQ40kKF-46" target="qAO6iCF2Uroy4pQ40kKF-54" edge="1">
          <mxGeometry relative="1" as="geometry" />
        </mxCell>
        <mxCell id="qAO6iCF2Uroy4pQ40kKF-60" style="edgeStyle=orthogonalEdgeStyle;rounded=0;orthogonalLoop=1;jettySize=auto;html=1;entryX=0.5;entryY=1;entryDx=0;entryDy=0;strokeWidth=2;" parent="1" source="qAO6iCF2Uroy4pQ40kKF-46" target="qAO6iCF2Uroy4pQ40kKF-58" edge="1">
          <mxGeometry relative="1" as="geometry" />
        </mxCell>
        <mxCell id="qAO6iCF2Uroy4pQ40kKF-46" value="Is existent branch is local, or remote?" style="shape=hexagon;perimeter=hexagonPerimeter2;whiteSpace=wrap;html=1;fixedSize=1;fillColor=#fff2cc;strokeColor=#d6b656;strokeWidth=2;" parent="1" vertex="1">
          <mxGeometry x="950" y="610" width="215" height="80" as="geometry" />
        </mxCell>
        <mxCell id="qAO6iCF2Uroy4pQ40kKF-49" style="edgeStyle=orthogonalEdgeStyle;rounded=0;orthogonalLoop=1;jettySize=auto;html=1;entryX=0.5;entryY=1;entryDx=0;entryDy=0;strokeWidth=2;" parent="1" source="qAO6iCF2Uroy4pQ40kKF-48" target="qAO6iCF2Uroy4pQ40kKF-21" edge="1">
          <mxGeometry relative="1" as="geometry" />
        </mxCell>
        <mxCell id="qAO6iCF2Uroy4pQ40kKF-48" value="Is branch name already exists?" style="shape=hexagon;perimeter=hexagonPerimeter2;whiteSpace=wrap;html=1;fixedSize=1;fillColor=#fff2cc;strokeColor=#d6b656;strokeWidth=2;" parent="1" vertex="1">
          <mxGeometry x="250" y="610" width="260" height="80" as="geometry" />
        </mxCell>
        <mxCell id="qAO6iCF2Uroy4pQ40kKF-56" style="edgeStyle=orthogonalEdgeStyle;rounded=0;orthogonalLoop=1;jettySize=auto;html=1;entryX=1;entryY=0.5;entryDx=0;entryDy=0;exitX=0.5;exitY=1;exitDx=0;exitDy=0;strokeWidth=2;" parent="1" source="qAO6iCF2Uroy4pQ40kKF-54" target="qAO6iCF2Uroy4pQ40kKF-31" edge="1">
          <mxGeometry relative="1" as="geometry" />
        </mxCell>
        <mxCell id="qAO6iCF2Uroy4pQ40kKF-54" value="Remote" style="ellipse;whiteSpace=wrap;html=1;aspect=fixed;strokeWidth=2;" parent="1" vertex="1">
          <mxGeometry x="1235" y="730" width="80" height="80" as="geometry" />
        </mxCell>
        <mxCell id="qAO6iCF2Uroy4pQ40kKF-61" style="edgeStyle=orthogonalEdgeStyle;rounded=0;orthogonalLoop=1;jettySize=auto;html=1;strokeWidth=2;" parent="1" source="qAO6iCF2Uroy4pQ40kKF-58" target="qAO6iCF2Uroy4pQ40kKF-62" edge="1">
          <mxGeometry relative="1" as="geometry">
            <mxPoint x="940" y="490" as="targetPoint" />
          </mxGeometry>
        </mxCell>
        <mxCell id="qAO6iCF2Uroy4pQ40kKF-58" value="Local" style="ellipse;whiteSpace=wrap;html=1;aspect=fixed;strokeWidth=2;" parent="1" vertex="1">
          <mxGeometry x="1017.5" y="450" width="80" height="80" as="geometry" />
        </mxCell>
        <mxCell id="qAO6iCF2Uroy4pQ40kKF-64" style="edgeStyle=orthogonalEdgeStyle;rounded=0;orthogonalLoop=1;jettySize=auto;html=1;entryX=0.5;entryY=1;entryDx=0;entryDy=0;strokeWidth=2;" parent="1" source="qAO6iCF2Uroy4pQ40kKF-62" target="qAO6iCF2Uroy4pQ40kKF-23" edge="1">
          <mxGeometry relative="1" as="geometry">
            <mxPoint x="660" y="490" as="targetPoint" />
          </mxGeometry>
        </mxCell>
        <mxCell id="qAO6iCF2Uroy4pQ40kKF-62" value="Rename existent local to another name" style="rounded=0;whiteSpace=wrap;html=1;fillColor=#e1d5e7;strokeColor=#9673a6;strokeWidth=2;" parent="1" vertex="1">
          <mxGeometry x="555" y="460" width="170" height="60" as="geometry" />
        </mxCell>
      </root>
    </mxGraphModel>
  </diagram>
</mxfile>
